<svg width="17" height="16" viewBox="0 0 17 16" fill="none" xmlns="http://www.w3.org/2000/svg">
<path fill-rule="evenodd" clip-rule="evenodd" d="M16.6736 5.8322L11.3458 5.05813L8.96409 0.230426C8.89629 0.115117 8.77252 0.0443115 8.63875 0.0443115C8.50498 0.0443115 8.38121 0.115117 8.31341 0.230426L5.93059 5.05704L0.601352 5.8322C0.464648 5.85193 0.350997 5.94756 0.308175 6.07887C0.265354 6.21018 0.300786 6.35442 0.399578 6.45095L4.25579 10.2092L3.34563 15.5155C3.3224 15.6516 3.37834 15.789 3.48998 15.8702C3.60161 15.9513 3.7496 15.9621 3.87184 15.898L8.63748 13.3929L13.4031 15.897C13.5254 15.961 13.6734 15.9502 13.785 15.8691C13.8966 15.7879 13.9526 15.6505 13.9293 15.5145L13.0192 10.2092L16.8754 6.45095C16.9742 6.35447 17.0096 6.2103 16.9669 6.07901C16.9242 5.94771 16.8106 5.85205 16.674 5.8322H16.6736Z" fill="#F5A623"/>
</svg>
